<svg xmlns="http://www.w3.org/2000/svg" viewBox="0 0 180 180" role="img" aria-label="The LeadFlow Pro logo">
  <defs>
    <radialGradient id="bg" cx="48%" cy="33%" r="72%">
      <stop offset="0%" stop-color="#084b78"/>
      <stop offset="58%" stop-color="#061833"/>
      <stop offset="100%" stop-color="#020817"/>
    </radialGradient>
    <linearGradient id="cyan" x1="0" x2="1" y1="0" y2="1">
      <stop offset="0%" stop-color="#62ffff"/>
      <stop offset="100%" stop-color="#08a6bb"/>
    </linearGradient>
    <linearGradient id="gold" x1="0" x2="1" y1="0" y2="1">
      <stop offset="0%" stop-color="#fff3a5"/>
      <stop offset="100%" stop-color="#f59e0b"/>
    </linearGradient>
  </defs>
  <circle cx="90" cy="90" r="88" fill="url(#bg)"/>
  <circle cx="90" cy="90" r="86" fill="none" stroke="#29e6f2" stroke-opacity=".32" stroke-width="2"/>
  <path d="M49 66c0-12 82-12 82 0s-82 12-82 0Z" fill="url(#cyan)"/>
  <path d="M55 78h70l-18 43H73Z" fill="url(#cyan)" opacity=".94"/>
  <path d="M73 126h35l-11 32H84Z" fill="url(#cyan)" opacity=".86"/>
  <path d="M29 144c35 18 100-10 121-64" fill="none" stroke="url(#gold)" stroke-width="13" stroke-linecap="round"/>
  <path d="m139 78 24-29 4 38Z" fill="url(#gold)"/>
  <circle cx="69" cy="158" r="15" fill="url(#gold)"/>
  <path d="M69 148v20M61 154h13c8 0 8 8 0 8H62" fill="none" stroke="#734900" stroke-width="4" stroke-linecap="round"/>
  <rect x="92" y="142" width="11" height="28" rx="2" fill="url(#gold)"/>
  <rect x="110" y="127" width="11" height="43" rx="2" fill="url(#gold)"/>
  <path d="M55 31c-14 14-8 28 7 31" fill="none" stroke="url(#cyan)" stroke-width="11" stroke-linecap="round"/>
  <path d="M96 30h33c12 0 20 9 20 20s-8 20-20 20h-27L84 85l4-16c-10-3-15-10-15-19 0-11 10-20 23-20Z" fill="url(#cyan)"/>
  <circle cx="105" cy="50" r="4" fill="#052140"/>
  <circle cx="119" cy="50" r="4" fill="#052140"/>
  <circle cx="134" cy="50" r="4" fill="#052140"/>
</svg>
