<svg xmlns="http://www.w3.org/2000/svg" viewBox="0 0 600 600" width="1254" height="1254"><defs><linearGradient id="accent" x1="0" y1="0" x2="1" y2="1"><stop stop-color="#fbbf24"/><stop offset="1" stop-color="#f97316"/></linearGradient><radialGradient id="wash"><stop stop-color="#fbbf24" stop-opacity=".16"/><stop offset="1" stop-color="#fbbf24" stop-opacity="0"/></radialGradient></defs><rect width="600" height="600" fill="#f5f0e9"/><ellipse cx="408.00000000000006" cy="180" rx="312" ry="300" fill="url(#wash)"/><ellipse cx="150" cy="444" rx="210" ry="216" fill="url(#wash)"/><circle cx="337" cy="277" r="171" fill="#f2e1c7" stroke="#c8bfcd" stroke-width="3"/><circle cx="337" cy="277" r="143" fill="#fffdf8" stroke="#c8bfcd" stroke-width="3"/><path d="M337 157L337 145" fill="none" stroke="#b8aa92" stroke-width="5" stroke-linecap="round" stroke-linejoin="round"/><path d="M397 173.07695154586736L403 162.6846467004541" fill="none" stroke="#b8aa92" stroke-width="3" stroke-linecap="round" stroke-linejoin="round"/><path d="M440.92304845413264 217L451.3153532995459 211" fill="none" stroke="#b8aa92" stroke-width="3" stroke-linecap="round" stroke-linejoin="round"/><path d="M457 277L469 277" fill="none" stroke="#b8aa92" stroke-width="5" stroke-linecap="round" stroke-linejoin="round"/><path d="M440.92304845413264 337L451.3153532995459 343" fill="none" stroke="#b8aa92" stroke-width="3" stroke-linecap="round" stroke-linejoin="round"/><path d="M397 380.92304845413264L403 391.3153532995459" fill="none" stroke="#b8aa92" stroke-width="3" stroke-linecap="round" stroke-linejoin="round"/><path d="M337 397L337 409" fill="none" stroke="#b8aa92" stroke-width="5" stroke-linecap="round" stroke-linejoin="round"/><path d="M277.00000000000006 380.92304845413264L271.00000000000006 391.3153532995459" fill="none" stroke="#b8aa92" stroke-width="3" stroke-linecap="round" stroke-linejoin="round"/><path d="M233.0769515458674 337.00000000000006L222.68464670045412 343.00000000000006" fill="none" stroke="#b8aa92" stroke-width="3" stroke-linecap="round" stroke-linejoin="round"/><path d="M217 277L205 277" fill="none" stroke="#b8aa92" stroke-width="5" stroke-linecap="round" stroke-linejoin="round"/><path d="M233.07695154586736 217L222.6846467004541 211" fill="none" stroke="#b8aa92" stroke-width="3" stroke-linecap="round" stroke-linejoin="round"/><path d="M276.99999999999994 173.0769515458674L270.99999999999994 162.68464670045415" fill="none" stroke="#b8aa92" stroke-width="3" stroke-linecap="round" stroke-linejoin="round"/><path d="M337 188V277L401 310" fill="none" stroke="#293248" stroke-width="9" stroke-linecap="round" stroke-linejoin="round"/><circle cx="337" cy="277" r="10" fill="url(#accent)"/><path d="M80 98H238Q257 98 257 117V175Q257 194 238 194H150L124 218V194H80Q61 194 61 175V117Q61 98 80 98Z" fill="#e8ddf1" stroke="#c8bfcd" stroke-width="3" stroke-linecap="round" stroke-linejoin="round"/><path d="M84 125h145" fill="none" stroke="#c8bfcd" stroke-width="4" stroke-linecap="round" stroke-linejoin="round"/><path d="M84 142h145" fill="none" stroke="#c8bfcd" stroke-width="4" stroke-linecap="round" stroke-linejoin="round"/><path d="M84 159h121" fill="none" stroke="#c8bfcd" stroke-width="4" stroke-linecap="round" stroke-linejoin="round"/><rect x="71" y="272" width="174" height="102" rx="13" fill="#fffdf8" stroke="#c8bfcd" stroke-width="3"/><path d="M75 282L157 336L239 282" fill="none" stroke="#b9a1cc" stroke-width="5" stroke-linecap="round" stroke-linejoin="round"/><circle cx="225" cy="281" r="25" fill="url(#accent)"/><g transform="translate(226 282) scale(1)"><path d="M-10 0L-2 8L13 -10" fill="none" stroke="#fffdf8" stroke-width="5" stroke-linecap="round" stroke-linejoin="round"/></g><rect x="217" y="436" width="274" height="76" rx="13" fill="#fffdf8" stroke="#c8bfcd" stroke-width="3"/><circle cx="253" cy="474" r="23" fill="#d6e8dc"/><circle cx="253" cy="469" r="6.44" fill="#9480ac"/><path d="M241.5 483.2Q253 468.25 264.5 483.2" fill="none" stroke="#9480ac" stroke-width="4.83" stroke-linecap="round" stroke-linejoin="round"/><path d="M292 459h148" fill="none" stroke="#c8bfcd" stroke-width="4" stroke-linecap="round" stroke-linejoin="round"/><path d="M292 476h124" fill="none" stroke="#c8bfcd" stroke-width="4" stroke-linecap="round" stroke-linejoin="round"/><circle cx="465" cy="475" r="15" fill="#6fa588"/><g transform="translate(465 475) scale(0.7)"><path d="M-10 0L-2 8L13 -10" fill="none" stroke="#fffdf8" stroke-width="5" stroke-linecap="round" stroke-linejoin="round"/></g><ellipse cx="302" cy="539" rx="213" ry="11" fill="#293248" opacity="0.06"/></svg>
