<svg xmlns="http://www.w3.org/2000/svg" viewBox="0 0 640 360" width="1920" height="1080"><defs><linearGradient id="accent" x1="0" y1="0" x2="1" y2="1"><stop stop-color="#38bdf8"/><stop offset="1" stop-color="#2563eb"/></linearGradient><radialGradient id="wash"><stop stop-color="#38bdf8" stop-opacity=".16"/><stop offset="1" stop-color="#38bdf8" stop-opacity="0"/></radialGradient></defs><rect width="640" height="360" fill="#f5f0e9"/><ellipse cx="435.20000000000005" cy="108" rx="332.8" ry="180" fill="url(#wash)"/><ellipse cx="160" cy="266.4" rx="224" ry="129.6" fill="url(#wash)"/><rect x="82" y="40" width="417" height="218" rx="15" fill="#293248"/><rect x="93" y="52" width="395" height="193" rx="8" fill="#fffdf8"/><rect x="106" y="66" width="86" height="166" rx="8" fill="#e9dff1"/><path d="M121 85h55" fill="none" stroke="#c8bfcd" stroke-width="4" stroke-linecap="round" stroke-linejoin="round"/><path d="M121 102h55" fill="none" stroke="#c8bfcd" stroke-width="4" stroke-linecap="round" stroke-linejoin="round"/><path d="M121 119h31" fill="none" stroke="#c8bfcd" stroke-width="4" stroke-linecap="round" stroke-linejoin="round"/><rect x="121" y="157" width="55" height="12" rx="4" fill="#ba9bcf"/><rect x="121" y="181" width="55" height="12" rx="4" fill="#d1beda"/><rect x="204" y="66" width="125" height="76" rx="8" fill="#f4eadb" stroke="#c8bfcd" stroke-width="3"/><path d="M218 128V100M243 128V88M268 128V113M293 128V81" fill="none" stroke="#d4a568" stroke-width="14" stroke-linecap="round" stroke-linejoin="round"/><circle cx="398" cy="104" r="34" fill="#d9e7e2"/><path d="M398 70A34 34 0 0 1 431 114" fill="none" stroke="#65a58f" stroke-width="12" stroke-linecap="round" stroke-linejoin="round"/><circle cx="398" cy="104" r="19" fill="#fffdf8"/><rect x="204" y="154" width="268" height="77" rx="8" fill="#f2eef6" stroke="#c8bfcd" stroke-width="3"/><path d="M218 214H457M218 194H457M218 174H457" fill="none" stroke="#d9d0e3" stroke-width="2" stroke-linecap="round" stroke-linejoin="round"/><path d="M219 209L260 201L289 207L320 178L355 189L394 169L422 184L456 167" fill="none" stroke="#8b66b5" stroke-width="4" stroke-linecap="round" stroke-linejoin="round"/><path d="M255 258V282H326V258M229 285H350" fill="none" stroke="#293248" stroke-width="8" stroke-linecap="round" stroke-linejoin="round"/><circle cx="502" cy="192" r="40" fill="#e1eff2" stroke="#293248" stroke-width="3"/><circle cx="502" cy="192" r="30" fill="#fffdf8" stroke="#b6c8d0" stroke-width="3"/><path d="M486 207V193M502 207V178M518 207V188" fill="none" stroke="#7d9bba" stroke-width="6" stroke-linecap="round" stroke-linejoin="round"/><path d="M531 223L564 256" fill="none" stroke="#293248" stroke-width="13" stroke-linecap="round" stroke-linejoin="round"/><ellipse cx="315" cy="306" rx="218" ry="11" fill="#293248" opacity="0.06"/></svg>
