<svg xmlns="http://www.w3.org/2000/svg" viewBox="0 0 640 360" width="640" height="360"><defs><linearGradient id="accent" x1="0" y1="0" x2="1" y2="1"><stop stop-color="#a78bfa"/><stop offset="1" stop-color="#d946ef"/></linearGradient><radialGradient id="wash"><stop stop-color="#a78bfa" stop-opacity=".14"/><stop offset="1" stop-color="#a78bfa" stop-opacity="0"/></radialGradient></defs><rect width="640" height="360" fill="#f5f0e9"/><ellipse cx="420" cy="118" rx="273" ry="190" fill="url(#wash)"/><ellipse cx="189" cy="271" rx="180" ry="140" fill="url(#wash)"/><rect x="123" y="110" width="150" height="120" rx="24" fill="url(#accent)" stroke="#283349" stroke-width="3"/><rect x="139" y="128" width="118" height="68" rx="17" fill="#fffdf8" stroke="#283349" stroke-width="3"/><circle cx="173" cy="160" r="9" fill="#74519b"/><circle cx="223" cy="160" r="9" fill="#74519b"/><path d="M180 186H216" fill="none" stroke="#aa8dc0" stroke-width="4" stroke-linecap="round" stroke-linejoin="round"/><path d="M198 110V89" fill="none" stroke="#283349" stroke-width="5" stroke-linecap="round" stroke-linejoin="round"/><circle cx="198" cy="80" r="10" fill="#e9bb6c" stroke="#283349" stroke-width="3"/><rect x="153" y="229" width="90" height="44" rx="10" fill="#e7dcf1" stroke="#283349" stroke-width="3"/><path d="M124 166L103 192M273 166L293 192" fill="none" stroke="#283349" stroke-width="10" stroke-linecap="round" stroke-linejoin="round"/><path d="M172 273L153 295M223 273L242 295" fill="none" stroke="#283349" stroke-width="8" stroke-linecap="round" stroke-linejoin="round"/><rect x="76" y="55" width="81" height="54" rx="9" fill="#fffdf8" stroke="#c5bbcc" stroke-width="3"/><path d="M89 72h55" fill="none" stroke="#c5bbcc" stroke-width="4" stroke-linecap="round" stroke-linejoin="round"/><path d="M89 90h35" fill="none" stroke="#c5bbcc" stroke-width="4" stroke-linecap="round" stroke-linejoin="round"/><path d="M285 214H326V121H383" fill="none" stroke="#b9a2ca" stroke-width="5" stroke-linecap="round" stroke-linejoin="round"/><rect x="368" y="74" width="148" height="202" rx="14" fill="#fffdf8" stroke="#c5bbcc" stroke-width="3"/><circle cx="409" cy="117" r="26" fill="#e7dcf1"/><circle cx="409" cy="112" r="7.280000000000001" fill="#9d81b5"/><path d="M396 127.4Q409 110.5 422 127.4" fill="none" stroke="#9d81b5" stroke-width="5.46" stroke-linecap="round" stroke-linejoin="round"/><path d="M449 103h50" fill="none" stroke="#c5bbcc" stroke-width="4" stroke-linecap="round" stroke-linejoin="round"/><path d="M449 121h30" fill="none" stroke="#c5bbcc" stroke-width="4" stroke-linecap="round" stroke-linejoin="round"/><path d="M389 164h108" fill="none" stroke="#c5bbcc" stroke-width="4" stroke-linecap="round" stroke-linejoin="round"/><path d="M389 182h88" fill="none" stroke="#c5bbcc" stroke-width="4" stroke-linecap="round" stroke-linejoin="round"/><rect x="389" y="220" width="106" height="31" rx="8" fill="#d7e8dd"/><g transform="translate(442 235) scale(0.85)"><path d="M-10 0L-2 8L13 -10" fill="none" stroke="#4e8f71" stroke-width="5" stroke-linecap="round" stroke-linejoin="round"/></g><circle cx="526" cy="267" r="30" fill="#6da388"/><g transform="translate(526 267) scale(1.1)"><path d="M-10 0L-2 8L13 -10" fill="none" stroke="#fffdf8" stroke-width="5" stroke-linecap="round" stroke-linejoin="round"/></g><ellipse cx="192" cy="316" rx="135" ry="11" fill="#283349" opacity="0.07"/></svg>
