<svg xmlns="http://www.w3.org/2000/svg" viewBox="0 0 640 360" width="640" height="360"><defs><linearGradient id="accent" x1="0" y1="0" x2="1" y2="1"><stop stop-color="#34d399"/><stop offset="1" stop-color="#0ea371"/></linearGradient><radialGradient id="wash"><stop stop-color="#34d399" stop-opacity=".14"/><stop offset="1" stop-color="#34d399" stop-opacity="0"/></radialGradient></defs><rect width="640" height="360" fill="#f5f0e9"/><ellipse cx="420" cy="118" rx="273" ry="190" fill="url(#wash)"/><ellipse cx="189" cy="271" rx="180" ry="140" fill="url(#wash)"/><rect x="82" y="83" width="307" height="192" rx="13" fill="#283349"/><rect x="94" y="95" width="283" height="166" rx="8" fill="#fffdf8"/><rect x="108" y="112" width="37" height="134" rx="7" fill="#e4eee6"/><path d="M119 129H134M119 148H134M119 167H130" fill="none" stroke="#98b09e" stroke-width="4" stroke-linecap="round" stroke-linejoin="round"/><path d="M173 113H328Q340 113 340 127V154Q340 168 327 168H200L178 181V168H173Q160 168 160 154V127Q160 113 173 113Z" fill="#e7dcf1" stroke="#c5bbcc" stroke-width="3" stroke-linecap="round" stroke-linejoin="round"/><path d="M179 132h137" fill="none" stroke="#c5bbcc" stroke-width="4" stroke-linecap="round" stroke-linejoin="round"/><path d="M179 150h117" fill="none" stroke="#c5bbcc" stroke-width="4" stroke-linecap="round" stroke-linejoin="round"/><rect x="183" y="191" width="171" height="42" rx="9" fill="#d7ecdf" stroke="#c5bbcc" stroke-width="3"/><path d="M198 205h120" fill="none" stroke="#c5bbcc" stroke-width="4" stroke-linecap="round" stroke-linejoin="round"/><path d="M61 277H407L427 294H45Z" fill="#c4c6cf" stroke="#283349" stroke-width="3" stroke-linecap="round" stroke-linejoin="round"/><path d="M201 286H273" fill="none" stroke="#939aa8" stroke-width="4" stroke-linecap="round" stroke-linejoin="round"/><rect x="435" y="89" width="113" height="160" rx="10" fill="#fffdf8" stroke="#c5bbcc" stroke-width="3"/><rect x="458" y="78" width="68" height="22" rx="6" fill="#d7b7d9"/><circle cx="455" cy="132" r="9" fill="#d7e8dd"/><g transform="translate(455 132) scale(0.55)"><path d="M-10 0L-2 8L13 -10" fill="none" stroke="#4e8f71" stroke-width="5" stroke-linecap="round" stroke-linejoin="round"/></g><path d="M476 128h37" fill="none" stroke="#c5bbcc" stroke-width="4" stroke-linecap="round" stroke-linejoin="round"/><circle cx="455" cy="167" r="9" fill="#d7e8dd"/><g transform="translate(455 167) scale(0.55)"><path d="M-10 0L-2 8L13 -10" fill="none" stroke="#4e8f71" stroke-width="5" stroke-linecap="round" stroke-linejoin="round"/></g><path d="M476 163h37" fill="none" stroke="#c5bbcc" stroke-width="4" stroke-linecap="round" stroke-linejoin="round"/><circle cx="455" cy="202" r="9" fill="#d7e8dd"/><g transform="translate(455 202) scale(0.55)"><path d="M-10 0L-2 8L13 -10" fill="none" stroke="#4e8f71" stroke-width="5" stroke-linecap="round" stroke-linejoin="round"/></g><path d="M476 198h37" fill="none" stroke="#c5bbcc" stroke-width="4" stroke-linecap="round" stroke-linejoin="round"/><path d="M457 276V261H499V292Q499 307 478 307Q457 307 457 292Z" fill="url(#accent)" stroke="#283349" stroke-width="3" stroke-linecap="round" stroke-linejoin="round"/><path d="M499 270H510Q525 283 509 292H501" fill="none" stroke="#283349" stroke-width="5" stroke-linecap="round" stroke-linejoin="round"/><path d="M468 243Q461 231 470 220M486 243Q479 231 488 220" fill="none" stroke="#b4c8b8" stroke-width="4" stroke-linecap="round" stroke-linejoin="round"/></svg>
