<svg xmlns="http://www.w3.org/2000/svg" viewBox="0 0 640 360" width="640" height="360"><defs><linearGradient id="accent" x1="0" y1="0" x2="1" y2="1"><stop stop-color="#38bdf8"/><stop offset="1" stop-color="#2563eb"/></linearGradient><radialGradient id="wash"><stop stop-color="#38bdf8" stop-opacity=".14"/><stop offset="1" stop-color="#38bdf8" stop-opacity="0"/></radialGradient></defs><rect width="640" height="360" fill="#f5f0e9"/><ellipse cx="420" cy="118" rx="273" ry="190" fill="url(#wash)"/><ellipse cx="189" cy="271" rx="180" ry="140" fill="url(#wash)"/><path d="M126 187L174 121H421L475 188V290H126Z" fill="#b8d6ec" stroke="#283349" stroke-width="4" stroke-linecap="round" stroke-linejoin="round"/><rect x="198" y="68" width="183" height="151" rx="12" fill="#fffdf8" stroke="#c5bbcc" stroke-width="3"/><circle cx="239" cy="109" r="22" fill="#e7dcf1"/><circle cx="239" cy="104" r="6.16" fill="#9d81b5"/><path d="M228 117.8Q239 103.5 250 117.8" fill="none" stroke="#9d81b5" stroke-width="4.62" stroke-linecap="round" stroke-linejoin="round"/><path d="M274 94h80" fill="none" stroke="#c5bbcc" stroke-width="4" stroke-linecap="round" stroke-linejoin="round"/><path d="M274 112h80" fill="none" stroke="#c5bbcc" stroke-width="4" stroke-linecap="round" stroke-linejoin="round"/><path d="M274 130h60" fill="none" stroke="#c5bbcc" stroke-width="4" stroke-linecap="round" stroke-linejoin="round"/><path d="M221 158h138" fill="none" stroke="#c5bbcc" stroke-width="4" stroke-linecap="round" stroke-linejoin="round"/><path d="M221 176h118" fill="none" stroke="#c5bbcc" stroke-width="4" stroke-linecap="round" stroke-linejoin="round"/><path d="M126 188H233L250 215H350L368 188H475V290H126Z" fill="url(#accent)" stroke="#283349" stroke-width="4" stroke-linecap="round" stroke-linejoin="round"/><path d="M145 239H456" fill="none" stroke="#80b9ed" stroke-width="4" stroke-linecap="round" stroke-linejoin="round"/><rect x="157" y="247" width="93" height="17" rx="5" fill="#d4eafb"/><path d="M441 68H528Q543 68 543 83V123Q543 138 528 138H494L473 156V138H441Q426 138 426 123V83Q426 68 441 68Z" fill="#e7dcf1" stroke="#c5bbcc" stroke-width="3" stroke-linecap="round" stroke-linejoin="round"/><circle cx="451" cy="103" r="4" fill="#ad8fc1"/><circle cx="482" cy="103" r="4" fill="#ad8fc1"/><circle cx="513" cy="103" r="4" fill="#ad8fc1"/><path d="M95 84H153V143H95Z" fill="#fffdf8" stroke="#c5bbcc" stroke-width="3" stroke-linecap="round" stroke-linejoin="round"/><path d="M98 89L124 112L150 89" fill="none" stroke="#b7a4c7" stroke-width="4" stroke-linecap="round" stroke-linejoin="round"/><path d="M91 169L77 182M492 169L509 183" fill="none" stroke="#b8a9c9" stroke-width="5" stroke-linecap="round" stroke-linejoin="round"/><circle cx="457" cy="282" r="31" fill="#59a285"/><g transform="translate(457 282) scale(1.2)"><path d="M-10 0L-2 8L13 -10" fill="none" stroke="#fffdf8" stroke-width="5" stroke-linecap="round" stroke-linejoin="round"/></g><ellipse cx="300" cy="319" rx="187" ry="11" fill="#283349" opacity="0.07"/></svg>
