<svg xmlns="http://www.w3.org/2000/svg" width="1200" height="675" viewBox="0 0 1200 675" role="img">
<defs>
<clipPath id="c"><rect width="1200" height="675"/></clipPath>
<radialGradient id="f" cx="50%" cy="50%" r="50%">
<stop offset="0%" stop-color="#A02257" stop-opacity="0.30"/>
<stop offset="55%" stop-color="#A02257" stop-opacity="0.11"/>
<stop offset="100%" stop-color="#A02257" stop-opacity="0"/>
</radialGradient>
<radialGradient id="e" cx="50%" cy="50%" r="50%">
<stop offset="0%" stop-color="#A02257" stop-opacity="0.16"/>
<stop offset="100%" stop-color="#A02257" stop-opacity="0"/>
</radialGradient>
</defs>
<g clip-path="url(#c)">
<rect width="1200" height="675" fill="#F7F5F2"/>
<g stroke="#0A1220" stroke-width="1" opacity="0.055"><line x1="56" y1="0" x2="56" y2="675"/><line x1="112" y1="0" x2="112" y2="675"/><line x1="168" y1="0" x2="168" y2="675"/><line x1="224" y1="0" x2="224" y2="675"/><line x1="280" y1="0" x2="280" y2="675"/><line x1="336" y1="0" x2="336" y2="675"/><line x1="392" y1="0" x2="392" y2="675"/><line x1="448" y1="0" x2="448" y2="675"/><line x1="504" y1="0" x2="504" y2="675"/><line x1="560" y1="0" x2="560" y2="675"/><line x1="616" y1="0" x2="616" y2="675"/><line x1="672" y1="0" x2="672" y2="675"/><line x1="728" y1="0" x2="728" y2="675"/><line x1="784" y1="0" x2="784" y2="675"/><line x1="840" y1="0" x2="840" y2="675"/><line x1="896" y1="0" x2="896" y2="675"/><line x1="952" y1="0" x2="952" y2="675"/><line x1="1008" y1="0" x2="1008" y2="675"/><line x1="1064" y1="0" x2="1064" y2="675"/><line x1="1120" y1="0" x2="1120" y2="675"/><line x1="1176" y1="0" x2="1176" y2="675"/><line x1="0" y1="56" x2="1200" y2="56"/><line x1="0" y1="112" x2="1200" y2="112"/><line x1="0" y1="168" x2="1200" y2="168"/><line x1="0" y1="224" x2="1200" y2="224"/><line x1="0" y1="280" x2="1200" y2="280"/><line x1="0" y1="336" x2="1200" y2="336"/><line x1="0" y1="392" x2="1200" y2="392"/><line x1="0" y1="448" x2="1200" y2="448"/><line x1="0" y1="504" x2="1200" y2="504"/><line x1="0" y1="560" x2="1200" y2="560"/><line x1="0" y1="616" x2="1200" y2="616"/><line x1="0" y1="672" x2="1200" y2="672"/></g>
<circle cx="1032" cy="526.5" r="283.5" fill="url(#e)"/>
<circle cx="411" cy="328.5" r="465.74999999999994" fill="url(#f)"/>
<g stroke="#A02257" stroke-width="2.5" opacity="0.55" stroke-linecap="round"><line x1="193.65" y1="577.98" x2="193.65" y2="593.98"/><line x1="247.9875" y1="577.98" x2="247.9875" y2="586.98"/><line x1="302.325" y1="577.98" x2="302.325" y2="586.98"/><line x1="356.6625" y1="577.98" x2="356.6625" y2="586.98"/><line x1="411" y1="577.98" x2="411" y2="593.98"/><line x1="465.3375" y1="577.98" x2="465.3375" y2="586.98"/><line x1="519.675" y1="577.98" x2="519.675" y2="586.98"/><line x1="574.0125" y1="577.98" x2="574.0125" y2="586.98"/><line x1="628.35" y1="577.98" x2="628.35" y2="593.98"/><line x1="193.65" y1="577.98" x2="628.35" y2="577.98"/></g>
<g transform="translate(222 139.5) scale(5.90625)"><rect x="14" y="6" width="36" height="52" rx="6" fill="none" stroke="#0A1220" stroke-width="3.2"/><rect x="20" y="13" width="24" height="10" rx="2.5" fill="#A02257" opacity="0.9"/><circle cx="23" cy="33" r="2.6" fill="#0A1220" opacity="0.55"/><circle cx="32" cy="33" r="2.6" fill="#0A1220" opacity="0.55"/><circle cx="41" cy="33" r="2.6" fill="#0A1220" opacity="0.55"/><circle cx="23" cy="42" r="2.6" fill="#0A1220" opacity="0.55"/><circle cx="32" cy="42" r="2.6" fill="#0A1220" opacity="0.55"/><circle cx="41" cy="42" r="2.6" fill="#0A1220" opacity="0.55"/><circle cx="23" cy="51" r="2.6" fill="#0A1220" opacity="0.55"/><circle cx="32" cy="51" r="2.6" fill="#0A1220" opacity="0.55"/><circle cx="41" cy="51" r="2.6" fill="#A02257" opacity="1"/></g>
</g>
</svg>