<svg xmlns="http://www.w3.org/2000/svg" width="1200" height="675" viewBox="0 0 1200 675" role="img">
<defs>
<clipPath id="c"><rect width="1200" height="675"/></clipPath>
<radialGradient id="f" cx="50%" cy="50%" r="50%">
<stop offset="0%" stop-color="#A02257" stop-opacity="0.30"/>
<stop offset="55%" stop-color="#A02257" stop-opacity="0.11"/>
<stop offset="100%" stop-color="#A02257" stop-opacity="0"/>
</radialGradient>
<radialGradient id="e" cx="50%" cy="50%" r="50%">
<stop offset="0%" stop-color="#A02257" stop-opacity="0.16"/>
<stop offset="100%" stop-color="#A02257" stop-opacity="0"/>
</radialGradient>
</defs>
<g clip-path="url(#c)">
<rect width="1200" height="675" fill="#F7F5F2"/>
<g stroke="#0A1220" stroke-width="1" opacity="0.055"><line x1="56" y1="0" x2="56" y2="675"/><line x1="112" y1="0" x2="112" y2="675"/><line x1="168" y1="0" x2="168" y2="675"/><line x1="224" y1="0" x2="224" y2="675"/><line x1="280" y1="0" x2="280" y2="675"/><line x1="336" y1="0" x2="336" y2="675"/><line x1="392" y1="0" x2="392" y2="675"/><line x1="448" y1="0" x2="448" y2="675"/><line x1="504" y1="0" x2="504" y2="675"/><line x1="560" y1="0" x2="560" y2="675"/><line x1="616" y1="0" x2="616" y2="675"/><line x1="672" y1="0" x2="672" y2="675"/><line x1="728" y1="0" x2="728" y2="675"/><line x1="784" y1="0" x2="784" y2="675"/><line x1="840" y1="0" x2="840" y2="675"/><line x1="896" y1="0" x2="896" y2="675"/><line x1="952" y1="0" x2="952" y2="675"/><line x1="1008" y1="0" x2="1008" y2="675"/><line x1="1064" y1="0" x2="1064" y2="675"/><line x1="1120" y1="0" x2="1120" y2="675"/><line x1="1176" y1="0" x2="1176" y2="675"/><line x1="0" y1="56" x2="1200" y2="56"/><line x1="0" y1="112" x2="1200" y2="112"/><line x1="0" y1="168" x2="1200" y2="168"/><line x1="0" y1="224" x2="1200" y2="224"/><line x1="0" y1="280" x2="1200" y2="280"/><line x1="0" y1="336" x2="1200" y2="336"/><line x1="0" y1="392" x2="1200" y2="392"/><line x1="0" y1="448" x2="1200" y2="448"/><line x1="0" y1="504" x2="1200" y2="504"/><line x1="0" y1="560" x2="1200" y2="560"/><line x1="0" y1="616" x2="1200" y2="616"/><line x1="0" y1="672" x2="1200" y2="672"/></g>
<circle cx="168.00000000000003" cy="526.5" r="283.5" fill="url(#e)"/>
<circle cx="809" cy="324.5" r="458.99999999999994" fill="url(#f)"/>
<g stroke="#A02257" stroke-width="2.5" opacity="0.55" stroke-linecap="round"><line x1="591.65" y1="573.98" x2="591.65" y2="589.98"/><line x1="645.9875" y1="573.98" x2="645.9875" y2="582.98"/><line x1="700.3249999999999" y1="573.98" x2="700.3249999999999" y2="582.98"/><line x1="754.6624999999999" y1="573.98" x2="754.6624999999999" y2="582.98"/><line x1="809" y1="573.98" x2="809" y2="589.98"/><line x1="863.3375" y1="573.98" x2="863.3375" y2="582.98"/><line x1="917.675" y1="573.98" x2="917.675" y2="582.98"/><line x1="972.0125" y1="573.98" x2="972.0125" y2="582.98"/><line x1="1026.35" y1="573.98" x2="1026.35" y2="589.98"/><line x1="591.65" y1="573.98" x2="1026.35" y2="573.98"/></g>
<g transform="translate(620 135.5) scale(5.90625)"><rect x="10" y="10" width="13" height="13" rx="3" fill="#A02257"/><path d="M13.5 16.5 L16 19 L20 14" fill="none" stroke="#FFFFFF" stroke-width="2.8" stroke-linecap="round" stroke-linejoin="round"/><rect x="10" y="28" width="13" height="13" rx="3" fill="#A02257"/><path d="M13.5 34.5 L16 37 L20 32" fill="none" stroke="#FFFFFF" stroke-width="2.8" stroke-linecap="round" stroke-linejoin="round"/><rect x="10" y="46" width="13" height="13" rx="3" fill="none" stroke="#0A1220" stroke-width="3"/><path d="M30 16 L56 16 M30 34 L56 34 M30 52 L47 52" fill="none" stroke="#0A1220" stroke-width="2.8" stroke-linecap="round" stroke-linejoin="round" opacity="0.6"/></g>
</g>
</svg>